<mxfile host="65bd71144e">
    <diagram id="rHv5sLaiqdBtB4qgF642" name="Page-1">
        <mxGraphModel dx="1054" dy="501" grid="1" gridSize="10" guides="1" tooltips="1" connect="1" arrows="1" fold="1" page="1" pageScale="1" pageWidth="1654" pageHeight="2336" math="0" shadow="0">
            <root>
                <mxCell id="0"/>
                <mxCell id="1" parent="0"/>
                <mxCell id="xb4AXjmRLnEu6CAvB97h-1" value="" style="endArrow=none;html=1;rounded=0;strokeWidth=5;" parent="1" edge="1">
                    <mxGeometry width="50" height="50" relative="1" as="geometry">
                        <mxPoint x="440" y="1070" as="sourcePoint"/>
                        <mxPoint x="440" y="40" as="targetPoint"/>
                    </mxGeometry>
                </mxCell>
                <mxCell id="xb4AXjmRLnEu6CAvB97h-2" value="" style="endArrow=none;html=1;rounded=0;strokeWidth=5;" parent="1" edge="1">
                    <mxGeometry width="50" height="50" relative="1" as="geometry">
                        <mxPoint x="40" y="1070" as="sourcePoint"/>
                        <mxPoint x="40" y="40" as="targetPoint"/>
                    </mxGeometry>
                </mxCell>
                <mxCell id="xb4AXjmRLnEu6CAvB97h-3" value="" style="endArrow=none;html=1;rounded=0;strokeWidth=5;" parent="1" edge="1">
                    <mxGeometry width="50" height="50" relative="1" as="geometry">
                        <mxPoint x="880" y="1070" as="sourcePoint"/>
                        <mxPoint x="880" y="40" as="targetPoint"/>
                    </mxGeometry>
                </mxCell>
                <mxCell id="xb4AXjmRLnEu6CAvB97h-4" value="" style="endArrow=none;html=1;rounded=0;strokeWidth=5;" parent="1" edge="1">
                    <mxGeometry width="50" height="50" relative="1" as="geometry">
                        <mxPoint x="1280" y="1060" as="sourcePoint"/>
                        <mxPoint x="1280" y="40" as="targetPoint"/>
                    </mxGeometry>
                </mxCell>
                <mxCell id="xb4AXjmRLnEu6CAvB97h-6" value="" style="endArrow=none;html=1;rounded=0;strokeWidth=5;" parent="1" edge="1">
                    <mxGeometry width="50" height="50" relative="1" as="geometry">
                        <mxPoint x="40" y="160" as="sourcePoint"/>
                        <mxPoint x="1630.4630533854167" y="160" as="targetPoint"/>
                    </mxGeometry>
                </mxCell>
                <mxCell id="xb4AXjmRLnEu6CAvB97h-7" value="&lt;font style=&quot;font-size: 34px;&quot;&gt;Implemantation Tasks&lt;/font&gt;" style="text;html=1;strokeColor=none;fillColor=none;align=center;verticalAlign=middle;whiteSpace=wrap;rounded=0;" parent="1" vertex="1">
                    <mxGeometry x="80" y="60" width="320" height="80" as="geometry"/>
                </mxCell>
                <mxCell id="xb4AXjmRLnEu6CAvB97h-8" value="&lt;font style=&quot;font-size: 34px;&quot;&gt;Assigned&lt;/font&gt;" style="text;html=1;strokeColor=none;fillColor=none;align=center;verticalAlign=middle;whiteSpace=wrap;rounded=0;" parent="1" vertex="1">
                    <mxGeometry x="520" y="60" width="320" height="80" as="geometry"/>
                </mxCell>
                <mxCell id="xb4AXjmRLnEu6CAvB97h-9" value="&lt;font style=&quot;font-size: 34px;&quot;&gt;Test&lt;/font&gt;" style="text;html=1;strokeColor=none;fillColor=none;align=center;verticalAlign=middle;whiteSpace=wrap;rounded=0;" parent="1" vertex="1">
                    <mxGeometry x="920" y="60" width="320" height="80" as="geometry"/>
                </mxCell>
                <mxCell id="xb4AXjmRLnEu6CAvB97h-10" value="&lt;font style=&quot;font-size: 18px;&quot;&gt;&lt;font color=&quot;#000000&quot;&gt;Leonardo&lt;br&gt;run launch file in mrsim&lt;/font&gt;&lt;br&gt;&lt;/font&gt;" style="rounded=0;whiteSpace=wrap;html=1;fontSize=34;fillColor=#fff2cc;strokeColor=#d6b656;" parent="1" vertex="1">
                    <mxGeometry x="920" y="210" width="240" height="80" as="geometry"/>
                </mxCell>
                <mxCell id="xb4AXjmRLnEu6CAvB97h-11" value="&lt;font style=&quot;font-size: 18px;&quot;&gt;&lt;font color=&quot;#000000&quot;&gt;Leonardo&lt;br&gt;get param in robot_node&lt;/font&gt;&lt;font&gt;&lt;br&gt;&lt;/font&gt;&lt;/font&gt;" style="rounded=0;whiteSpace=wrap;html=1;fontSize=34;fillColor=#fff2cc;strokeColor=#d6b656;" parent="1" vertex="1">
                    <mxGeometry x="920" y="400" width="240" height="80" as="geometry"/>
                </mxCell>
                <mxCell id="xb4AXjmRLnEu6CAvB97h-13" value="&lt;font color=&quot;#000000&quot; style=&quot;font-size: 18px;&quot;&gt;Francesco&lt;br&gt;initialize robot and lidars&lt;/font&gt;" style="rounded=0;whiteSpace=wrap;html=1;fontSize=34;fillColor=#f8cecc;strokeColor=#b85450;" parent="1" vertex="1">
                    <mxGeometry x="920" y="520" width="240" height="80" as="geometry"/>
                </mxCell>
                <mxCell id="xb4AXjmRLnEu6CAvB97h-14" value="&lt;font color=&quot;#000000&quot;&gt;public on different topics in mrsim&lt;/font&gt;" style="rounded=0;whiteSpace=wrap;html=1;fontSize=18;fillColor=#f8cecc;strokeColor=#b85450;" parent="1" vertex="1">
                    <mxGeometry x="80" y="560" width="240" height="80" as="geometry"/>
                </mxCell>
                <mxCell id="4" value="" style="endArrow=none;html=1;rounded=0;strokeWidth=5;" edge="1" parent="1">
                    <mxGeometry width="50" height="50" relative="1" as="geometry">
                        <mxPoint x="1630" y="1050" as="sourcePoint"/>
                        <mxPoint x="1630" y="40" as="targetPoint"/>
                    </mxGeometry>
                </mxCell>
                <mxCell id="5" value="&lt;font style=&quot;font-size: 34px;&quot;&gt;Done&lt;/font&gt;" style="text;html=1;strokeColor=none;fillColor=none;align=center;verticalAlign=middle;whiteSpace=wrap;rounded=0;" vertex="1" parent="1">
                    <mxGeometry x="1300" y="60" width="320" height="80" as="geometry"/>
                </mxCell>
                <mxCell id="7" value="&lt;font style=&quot;font-size: 18px;&quot;&gt;&lt;font color=&quot;#000000&quot;&gt;Leonardo: &lt;br&gt;istance of world in mrsim&lt;/font&gt;&lt;font&gt;&lt;br&gt;&lt;/font&gt;&lt;/font&gt;" style="rounded=0;whiteSpace=wrap;html=1;fontSize=34;fillColor=#fff2cc;strokeColor=#d6b656;" vertex="1" parent="1">
                    <mxGeometry x="920" y="300" width="240" height="80" as="geometry"/>
                </mxCell>
            </root>
        </mxGraphModel>
    </diagram>
</mxfile>